<?xml version="1.0" encoding="UTF-8" ?>
<!DOCTYPE svg PUBLIC "-//W3C//DTD SVG 1.1//EN" "http://www.w3.org/Graphics/SVG/1.1/DTD/svg11.dtd">
<svg width="1024pt" height="1024pt" viewBox="0 0 1024 1024" version="1.1" xmlns="http://www.w3.org/2000/svg">
<g id="#fdf6e3ff">
<path fill="#fdf6e3" opacity="1.00" d=" M 451.99 294.31 C 456.95 293.44 462.01 293.88 467.01 293.92 C 481.66 294.38 496.30 293.49 510.95 293.94 C 514.89 294.10 518.84 294.01 522.79 293.78 C 522.71 315.05 522.80 336.32 522.92 357.59 C 499.21 357.52 475.51 357.55 451.81 357.55 C 451.88 342.37 451.74 327.19 451.85 312.01 C 451.97 306.11 451.38 300.19 451.99 294.31 Z" />
<path fill="#fdf6e3" opacity="1.00" d=" M 598.49 294.49 C 612.21 293.84 625.96 294.25 639.69 294.24 C 639.76 315.33 639.56 336.42 639.88 357.51 C 632.78 357.42 625.69 357.78 618.61 357.58 C 580.56 398.19 541.80 438.14 503.85 478.84 C 497.40 486.08 490.43 492.81 483.75 499.82 C 483.73 509.96 483.26 520.13 483.97 530.25 C 491.64 524.19 498.05 516.75 505.27 510.18 C 511.08 504.99 516.19 498.99 522.71 494.63 C 522.68 509.27 522.66 523.90 522.86 538.54 C 499.17 538.21 475.48 538.38 451.80 538.38 C 451.64 511.05 451.67 483.72 451.73 456.39 C 459.51 456.30 467.29 456.46 475.06 456.31 C 478.25 454.14 480.80 451.21 483.54 448.53 C 495.22 436.39 506.86 424.19 518.98 412.49 C 477.32 412.59 435.67 412.69 394.01 412.57 C 388.84 412.58 383.44 411.22 379.74 407.40 C 371.40 400.14 370.02 387.24 374.59 377.56 C 377.22 371.92 382.75 367.67 388.98 366.98 C 395.63 366.24 402.33 366.57 409.01 366.60 C 431.67 366.55 454.34 366.57 477.01 366.63 C 500.32 366.97 523.64 366.31 546.95 366.66 C 543.94 370.56 538.74 372.94 537.52 378.05 C 536.23 381.49 538.18 385.90 541.82 386.88 C 551.17 377.85 560.21 368.45 568.74 358.63 C 574.32 352.91 580.17 347.45 585.57 341.56 C 588.02 338.99 590.24 336.14 593.11 334.02 C 596.03 335.56 598.29 338.04 600.65 340.30 C 605.13 344.84 609.92 349.06 614.19 353.81 C 615.60 355.42 617.45 356.54 619.43 357.33 C 619.34 339.42 619.74 321.50 619.27 303.59 C 612.03 309.12 606.46 316.59 598.77 321.56 C 598.35 312.55 598.63 303.51 598.49 294.49 Z" />
<path fill="#fdf6e3" opacity="1.00" d=" M 628.48 366.97 C 635.96 366.30 643.47 366.74 650.97 366.67 C 665.30 366.77 679.63 366.48 693.97 366.59 C 698.71 366.60 703.78 367.40 707.42 370.72 C 718.18 378.90 719.19 396.99 709.21 406.18 C 704.78 410.86 698.37 412.67 692.08 412.60 C 663.04 412.67 633.99 412.44 604.94 412.52 C 599.19 412.47 593.40 412.93 587.69 412.06 C 588.60 407.83 592.24 405.13 594.84 401.93 C 606.07 390.29 616.86 378.23 628.48 366.97 Z" />
<path fill="#fdf6e3" opacity="1.00" d=" M 568.92 472.03 C 569.18 466.90 569.48 461.76 569.28 456.63 C 592.23 456.81 615.19 456.67 638.15 456.68 C 629.82 457.71 621.41 457.08 613.04 457.22 C 598.70 457.06 584.34 457.62 570.01 456.91 C 570.62 464.11 567.96 471.48 570.42 478.50 C 593.60 478.12 616.78 478.56 639.96 478.47 C 639.74 498.43 640.04 518.40 639.98 538.36 C 616.27 538.61 592.55 538.17 568.84 538.60 C 568.84 519.71 568.61 500.83 568.85 481.94 C 569.21 478.64 569.19 475.33 568.92 472.03 Z" />
<path fill="#fdf6e3" opacity="1.00" d=" M 240.75 671.92 C 243.40 679.43 246.80 686.65 249.96 693.96 C 243.92 694.12 237.87 693.97 231.83 694.10 C 234.74 686.68 237.77 679.30 240.75 671.92 Z" />
<path fill="#fdf6e3" opacity="1.00" d=" M 561.70 671.79 C 564.80 679.20 567.86 686.65 571.38 693.88 C 565.20 694.15 559.02 693.93 552.85 694.06 C 555.62 686.56 559.04 679.32 561.70 671.79 Z" />
<path fill="#fdf6e3" opacity="1.00" d=" M 510.41 780.52 C 520.13 778.41 530.96 784.30 533.97 793.90 C 537.35 803.67 530.81 815.34 520.96 818.16 C 511.06 821.76 499.19 815.83 495.84 805.91 C 491.88 795.29 499.30 782.50 510.41 780.52 Z" />
</g>
<g id="#002f3cff">
<path fill="#002f3c" opacity="1.00" d=" M 522.71 174.24 C 531.02 181.11 538.10 189.29 546.11 196.48 C 553.74 189.21 560.45 180.85 568.79 174.38 C 569.05 199.35 568.62 224.32 568.77 249.29 C 568.61 285.73 568.62 322.18 568.74 358.63 C 560.21 368.45 551.17 377.85 541.82 386.88 C 538.18 385.90 536.23 381.49 537.52 378.05 C 538.74 372.94 543.94 370.56 546.95 366.66 C 523.64 366.31 500.32 366.97 477.01 366.63 C 454.34 366.57 431.67 366.55 409.01 366.60 C 402.33 366.57 395.63 366.24 388.98 366.98 C 382.75 367.67 377.22 371.92 374.59 377.56 C 370.02 387.24 371.40 400.14 379.74 407.40 C 383.44 411.22 388.84 412.58 394.01 412.57 C 435.67 412.69 477.32 412.59 518.98 412.49 C 506.86 424.19 495.22 436.39 483.54 448.53 C 480.80 451.21 478.25 454.14 475.06 456.31 C 467.29 456.46 459.51 456.30 451.73 456.39 C 451.67 483.72 451.64 511.05 451.80 538.38 C 475.48 538.38 499.17 538.21 522.86 538.54 C 522.66 523.90 522.68 509.27 522.71 494.63 C 522.75 489.48 522.73 484.33 522.65 479.18 C 516.38 479.01 510.12 478.75 503.85 478.84 C 541.80 438.14 580.56 398.19 618.61 357.58 C 625.69 357.78 632.78 357.42 639.88 357.51 C 655.02 357.63 670.16 357.24 685.31 357.50 C 698.00 357.70 710.70 357.43 723.40 357.60 C 723.57 390.50 723.73 423.41 723.43 456.31 C 710.73 456.05 698.02 456.40 685.32 456.35 C 684.78 498.66 685.45 540.98 684.91 583.29 C 646.20 583.04 607.47 583.07 568.76 583.29 C 568.87 591.65 568.84 600.01 568.65 608.37 C 553.46 607.90 538.27 608.49 523.08 608.31 C 522.37 599.96 522.97 591.58 522.69 583.22 C 483.45 583.09 444.19 583.09 404.95 583.36 C 405.21 541.00 405.09 498.63 405.16 456.27 C 391.49 456.07 377.83 456.48 364.17 456.27 C 364.07 423.41 364.16 390.54 363.93 357.68 C 377.56 357.36 391.20 357.75 404.83 357.53 C 420.49 357.30 436.15 357.55 451.81 357.55 C 475.51 357.55 499.21 357.52 522.92 357.59 C 522.80 336.32 522.71 315.05 522.79 293.78 C 523.41 278.97 523.24 264.14 522.80 249.32 C 522.85 224.30 522.67 199.27 522.71 174.24 M 628.48 366.97 C 616.86 378.23 606.07 390.29 594.84 401.93 C 592.24 405.13 588.60 407.83 587.69 412.06 C 593.40 412.93 599.19 412.47 604.94 412.52 C 633.99 412.44 663.04 412.67 692.08 412.60 C 698.37 412.67 704.78 410.86 709.21 406.18 C 719.19 396.99 718.18 378.90 707.42 370.72 C 703.78 367.40 698.71 366.60 693.97 366.59 C 679.63 366.48 665.30 366.77 650.97 366.67 C 643.47 366.74 635.96 366.30 628.48 366.97 M 568.92 472.03 C 569.19 475.33 569.21 478.64 568.85 481.94 C 568.61 500.83 568.84 519.71 568.84 538.60 C 592.55 538.17 616.27 538.61 639.98 538.36 C 640.04 518.40 639.74 498.43 639.96 478.47 C 640.26 471.14 640.08 463.81 640.06 456.48 C 639.58 456.53 638.63 456.63 638.15 456.68 C 615.19 456.67 592.23 456.81 569.28 456.63 C 569.48 461.76 569.18 466.90 568.92 472.03 Z" />
<path fill="#002f3c" opacity="1.00" d=" M 632.84 643.97 C 638.20 645.83 641.99 650.19 646.22 653.74 C 657.42 663.45 668.89 672.84 679.89 682.78 C 680.08 670.82 680.15 658.86 680.06 646.90 C 686.06 646.88 692.06 646.62 698.07 646.75 C 697.66 662.51 698.12 678.27 697.88 694.04 C 697.70 703.33 698.30 712.65 697.58 721.94 C 695.78 721.04 694.00 720.10 692.46 718.81 C 678.33 707.35 664.94 695.01 650.82 683.54 C 650.79 695.75 650.70 707.96 650.74 720.17 C 644.82 720.27 638.90 720.53 632.99 720.19 C 632.47 694.79 632.52 669.37 632.84 643.97 Z" />
<path fill="#002f3c" opacity="1.00" d=" M 757.96 646.92 C 772.12 643.54 788.65 646.97 798.42 658.30 C 794.12 662.33 790.25 666.77 786.30 671.13 C 781.25 667.33 775.53 663.55 768.94 663.77 C 761.36 663.28 753.78 667.49 750.00 674.04 C 747.59 678.47 747.24 683.83 748.36 688.69 C 750.52 696.25 757.25 702.40 765.09 703.57 C 772.87 704.96 780.34 700.82 785.54 695.31 C 790.04 699.22 795.04 702.53 799.23 706.81 C 795.71 710.45 792.17 714.23 787.66 716.66 C 777.50 722.17 765.01 723.19 754.06 719.54 C 743.83 716.07 735.41 707.99 731.10 698.14 C 726.79 687.41 728.13 674.81 733.89 664.88 C 739.26 656.16 748.01 649.49 757.96 646.92 Z" />
<path fill="#002f3c" opacity="1.00" d=" M 438.48 656.60 C 445.78 649.59 455.87 645.53 466.02 645.78 C 477.23 645.24 488.46 650.17 495.89 658.53 C 491.82 662.59 487.82 666.72 483.99 671.00 C 477.29 665.68 468.55 662.03 459.96 664.56 C 450.31 666.75 443.69 677.22 445.40 686.87 C 446.81 695.07 453.77 702.12 462.04 703.39 C 469.98 704.99 478.21 701.28 483.27 695.16 C 487.89 698.85 492.50 702.60 496.67 706.82 C 490.55 713.49 482.85 719.05 473.80 720.78 C 462.41 723.14 449.78 721.05 440.54 713.73 C 434.26 708.69 429.34 701.78 427.30 693.94 C 423.85 680.73 428.14 665.64 438.48 656.60 Z" />
<path fill="#002f3c" opacity="1.00" d=" M 233.85 647.03 C 238.53 646.96 243.22 646.85 247.91 646.84 C 249.96 650.41 251.33 654.29 252.95 658.06 C 259.13 671.90 265.25 685.76 271.43 699.60 C 274.24 706.72 278.12 713.37 280.63 720.62 C 274.18 720.30 267.72 720.52 261.28 720.11 C 259.40 716.39 257.68 712.60 255.92 708.83 C 245.87 708.71 235.83 708.86 225.79 708.88 C 224.33 712.85 222.68 716.76 220.57 720.44 C 214.36 720.36 208.16 720.56 201.96 720.39 C 204.17 712.91 207.91 706.04 210.97 698.90 C 218.64 681.63 226.23 664.32 233.85 647.03 M 240.75 671.92 C 237.77 679.30 234.74 686.68 231.83 694.10 C 237.87 693.97 243.92 694.12 249.96 693.96 C 246.80 686.65 243.40 679.43 240.75 671.92 Z" />
<path fill="#002f3c" opacity="1.00" d=" M 347.43 646.94 C 353.54 646.80 359.66 646.86 365.77 646.92 C 365.74 665.59 365.64 684.26 365.79 702.93 C 376.56 703.25 387.34 702.69 398.11 702.78 C 398.12 708.60 398.15 714.43 397.82 720.25 C 381.13 720.23 364.42 720.50 347.73 720.30 C 347.39 695.85 347.45 671.39 347.43 646.94 Z" />
<path fill="#002f3c" opacity="1.00" d=" M 533.04 696.07 C 540.53 679.69 547.63 663.12 555.47 646.89 C 560.19 646.99 564.91 646.78 569.64 646.80 C 580.04 671.54 591.14 695.97 602.36 720.35 C 595.67 720.38 588.98 720.57 582.31 720.15 C 580.56 716.28 578.92 712.34 576.57 708.80 C 566.52 709.08 556.47 708.65 546.43 709.06 C 545.11 712.93 543.25 716.57 541.64 720.32 C 535.25 720.48 528.85 720.39 522.46 720.27 C 525.27 711.91 529.55 704.16 533.04 696.07 M 561.70 671.79 C 559.04 679.32 555.62 686.56 552.85 694.06 C 559.02 693.93 565.20 694.15 571.38 693.88 C 567.86 686.65 564.80 679.20 561.70 671.79 Z" />
<path fill="#002f3c" opacity="1.00" d=" M 839.70 646.92 C 856.08 647.14 872.46 646.63 888.84 646.76 C 888.75 652.48 888.82 658.20 888.63 663.92 C 878.38 664.13 868.13 663.72 857.89 664.11 C 857.85 667.95 857.90 671.80 857.90 675.64 C 865.49 675.54 873.07 675.56 880.67 675.52 C 880.71 680.89 880.65 686.26 880.49 691.63 C 872.84 691.57 865.18 691.47 857.54 691.68 C 857.63 695.50 857.70 699.33 857.79 703.16 C 868.29 702.96 878.80 703.13 889.31 702.92 C 889.23 708.72 889.28 714.53 889.23 720.33 C 872.72 720.31 856.21 720.48 839.70 720.40 C 839.39 695.91 839.48 671.40 839.70 646.92 Z" />
<path fill="#002f3c" opacity="1.00" d=" M 303.23 680.59 C 303.41 677.32 303.52 674.05 303.71 670.79 C 306.63 670.81 309.55 670.81 312.47 670.80 C 312.50 674.02 312.40 677.24 312.46 680.47 C 316.87 680.35 321.28 680.30 325.70 680.24 C 325.66 683.79 325.62 687.34 325.71 690.90 C 321.32 691.30 316.91 691.29 312.50 691.29 C 312.62 694.81 312.57 698.35 312.23 701.87 C 309.41 701.78 306.59 701.71 303.77 701.68 C 303.31 698.15 303.05 694.60 302.77 691.06 C 298.43 691.22 294.10 691.51 289.76 691.37 C 289.82 687.77 289.85 684.17 289.89 680.58 C 294.33 680.96 298.79 681.03 303.23 680.59 Z" />
<path fill="#002f3c" opacity="1.00" d=" M 508.40 763.53 C 518.60 761.89 529.64 763.84 538.12 769.94 C 546.57 775.93 552.64 785.62 553.29 796.07 C 554.96 812.75 543.40 829.72 527.23 834.17 C 517.55 837.21 506.64 836.96 497.41 832.54 C 486.27 827.39 477.42 816.51 476.25 804.09 C 474.03 784.84 489.35 766.06 508.40 763.53 M 510.41 780.52 C 499.30 782.50 491.88 795.29 495.84 805.91 C 499.19 815.83 511.06 821.76 520.96 818.16 C 530.81 815.34 537.35 803.67 533.97 793.90 C 530.96 784.30 520.13 778.41 510.41 780.52 Z" />
<path fill="#002f3c" opacity="1.00" d=" M 598.87 765.93 C 611.90 760.82 628.18 762.22 638.90 771.70 C 635.48 776.19 631.78 780.46 628.63 785.14 C 623.71 782.03 617.96 779.82 612.05 780.50 C 606.52 780.78 601.56 784.11 598.26 788.41 C 594.26 794.57 593.81 803.03 597.79 809.33 C 600.77 814.01 605.58 817.70 611.07 818.84 C 615.49 819.64 620.01 819.16 624.43 818.49 C 625.40 816.17 625.84 813.68 626.07 811.19 C 622.09 810.84 618.10 810.71 614.11 810.67 C 613.95 806.14 613.85 801.61 614.13 797.09 C 623.71 796.59 633.30 796.93 642.89 796.75 C 643.18 805.85 642.90 814.96 643.28 824.06 C 643.54 825.58 641.90 826.24 641.01 827.12 C 633.66 832.92 624.29 835.99 614.96 836.12 C 603.42 836.61 591.50 831.77 584.30 822.59 C 576.70 814.13 574.24 801.87 577.11 790.96 C 579.77 779.77 588.20 770.16 598.87 765.93 Z" />
<path fill="#002f3c" opacity="1.00" d=" M 663.54 767.62 C 673.65 761.16 687.62 763.21 696.47 770.97 C 693.59 775.12 691.11 779.53 689.12 784.18 C 684.89 781.79 680.21 779.15 675.16 780.13 C 671.42 781.14 670.37 786.40 673.09 788.99 C 678.78 794.77 688.42 794.87 693.11 801.92 C 700.25 811.05 696.86 825.31 687.53 831.58 C 676.79 838.64 661.08 837.27 651.86 828.31 C 654.73 824.15 657.30 819.78 660.26 815.67 C 664.03 817.49 667.58 820.59 672.04 820.14 C 676.72 820.93 681.44 814.87 677.96 810.92 C 672.74 805.15 663.56 805.45 658.65 799.25 C 650.57 790.04 653.07 773.95 663.54 767.62 Z" />
<path fill="#002f3c" opacity="1.00" d=" M 408.25 765.16 C 414.10 765.30 419.93 764.82 425.78 764.86 C 426.05 782.50 425.86 800.15 425.92 817.79 C 436.73 818.10 447.55 817.72 458.37 817.80 C 458.23 823.37 458.32 828.94 457.88 834.50 C 441.36 834.45 424.84 834.58 408.32 834.45 C 408.05 811.36 408.27 788.26 408.25 765.16 Z" />
</g>
<g id="#caa473ff">
<path fill="#caa473" opacity="1.00" d=" M 404.67 249.51 C 422.08 248.40 439.54 248.95 456.97 248.94 C 478.92 248.74 500.86 249.07 522.80 249.32 C 523.24 264.14 523.41 278.97 522.79 293.78 C 518.84 294.01 514.89 294.10 510.95 293.94 C 496.30 293.49 481.66 294.38 467.01 293.92 C 462.01 293.88 456.95 293.44 451.99 294.31 C 451.38 300.19 451.97 306.11 451.85 312.01 C 451.74 327.19 451.88 342.37 451.81 357.55 C 436.15 357.55 420.49 357.30 404.83 357.53 C 404.49 321.53 405.02 285.51 404.67 249.51 Z" />
<path fill="#caa473" opacity="1.00" d=" M 568.77 249.29 C 581.52 248.63 594.27 249.24 607.02 248.96 C 633.05 249.09 659.10 248.55 685.13 249.07 C 685.39 285.21 685.09 321.36 685.31 357.50 C 670.16 357.24 655.02 357.63 639.88 357.51 C 639.56 336.42 639.76 315.33 639.69 294.24 C 625.96 294.25 612.21 293.84 598.49 294.49 C 598.63 303.51 598.35 312.55 598.77 321.56 C 606.46 316.59 612.03 309.12 619.27 303.59 C 619.74 321.50 619.34 339.42 619.43 357.33 C 617.45 356.54 615.60 355.42 614.19 353.81 C 609.92 349.06 605.13 344.84 600.65 340.30 C 598.29 338.04 596.03 335.56 593.11 334.02 C 590.24 336.14 588.02 338.99 585.57 341.56 C 580.17 347.45 574.32 352.91 568.74 358.63 C 568.62 322.18 568.61 285.73 568.77 249.29 Z" />
<path fill="#caa473" opacity="1.00" d=" M 638.15 456.68 C 638.63 456.63 639.58 456.53 640.06 456.48 C 640.08 463.81 640.26 471.14 639.96 478.47 C 616.78 478.56 593.60 478.12 570.42 478.50 C 567.96 471.48 570.62 464.11 570.01 456.91 C 584.34 457.62 598.70 457.06 613.04 457.22 C 621.41 457.08 629.82 457.71 638.15 456.68 Z" />
<path fill="#caa473" opacity="1.00" d=" M 483.75 499.82 C 490.43 492.81 497.40 486.08 503.85 478.84 C 510.12 478.75 516.38 479.01 522.65 479.18 C 522.73 484.33 522.75 489.48 522.71 494.63 C 516.19 498.99 511.08 504.99 505.27 510.18 C 498.05 516.75 491.64 524.19 483.97 530.25 C 483.26 520.13 483.73 509.96 483.75 499.82 Z" />
<path fill="#caa473" opacity="1.00" d=" M 355.66 777.71 C 358.83 777.79 362.00 777.84 365.18 777.81 C 365.28 782.16 365.41 786.51 365.51 790.87 C 370.44 791.09 375.38 790.98 380.31 791.35 C 380.23 794.68 380.17 798.02 380.12 801.36 C 375.17 801.09 370.21 801.00 365.26 801.27 C 365.20 805.45 365.03 809.63 364.79 813.81 C 361.65 813.85 358.52 813.87 355.39 813.85 C 355.44 809.69 355.30 805.54 354.88 801.40 C 350.38 801.23 345.88 801.13 341.39 800.91 C 341.34 797.74 341.33 794.58 341.37 791.42 C 346.09 791.20 350.81 791.01 355.53 790.72 C 355.51 786.38 355.57 782.04 355.66 777.71 Z" />
<path fill="#caa473" opacity="1.00" d=" M 749.67 777.82 C 752.89 777.80 756.11 777.80 759.34 777.84 C 759.19 782.37 759.29 786.90 759.57 791.43 C 764.11 791.30 768.66 791.25 773.21 791.54 C 773.26 794.83 773.32 798.13 773.37 801.44 C 768.66 801.30 763.96 801.22 759.26 801.28 C 759.18 805.47 759.16 809.66 759.13 813.85 C 755.90 813.87 752.67 813.84 749.45 813.76 C 749.49 809.65 749.35 805.54 748.93 801.46 C 744.16 801.44 739.38 801.43 734.61 801.41 C 734.57 798.10 734.56 794.79 734.59 791.49 C 739.59 791.30 744.60 791.36 749.60 790.87 C 749.45 786.52 749.47 782.16 749.67 777.82 Z" />
</g>
</svg>
