<?xml version="1.0" encoding="UTF-8"?>
<svg id="Layer_2" data-name="Layer 2" xmlns="http://www.w3.org/2000/svg" viewBox="0 0 359.67 434.13">
  <defs>
    <style>
      .cls-1 {
        fill: #caa473;
      }

      .cls-2 {
        fill: #fdf6e3;
      }

      .cls-3 {
        fill: #002f3c;
      }
    </style>
  </defs>
  <g id="Layer_1-2" data-name="Layer 1">
    <g id="_fdf6e3ff" data-name="#fdf6e3ff">
      <path class="cls-2" d="m88.06,120.07c4.96-.87,10.02-.43,15.02-.39,14.65.46,29.29-.43,43.94.02,3.94.16,7.89.07,11.84-.16-.08,21.27.01,42.54.13,63.81-23.71-.07-47.41-.04-71.11-.04.07-15.18-.07-30.36.04-45.54.12-5.9-.47-11.82.14-17.7Z"/>
      <path class="cls-2" d="m234.56,120.25c13.72-.65,27.47-.24,41.2-.25.07,21.09-.13,42.18.19,63.27-7.1-.09-14.19.27-21.27.07-38.05,40.61-76.81,80.56-114.76,121.26-6.45,7.24-13.42,13.97-20.1,20.98-.02,10.14-.49,20.31.22,30.43,7.67-6.06,14.08-13.5,21.3-20.07,5.81-5.19,10.92-11.19,17.44-15.55-.03,14.64-.05,29.27.15,43.91-23.69-.33-47.38-.16-71.06-.16-.16-27.33-.13-54.66-.07-81.99,7.78-.09,15.56.07,23.33-.08,3.19-2.17,5.74-5.1,8.48-7.78,11.68-12.14,23.32-24.34,35.44-36.04-41.66.1-83.31.2-124.97.08-5.17,0-10.57-1.35-14.27-5.17-8.34-7.26-9.72-20.16-5.15-29.84,2.63-5.64,8.16-9.89,14.39-10.58,6.65-.74,13.35-.41,20.03-.38,22.66-.05,45.33-.03,68,.03,23.31.34,46.63-.32,69.94.03-3.01,3.9-8.21,6.28-9.43,11.39-1.29,3.44.66,7.85,4.3,8.83,9.35-9.03,18.39-18.43,26.92-28.25,5.58-5.72,11.43-11.18,16.83-17.07,2.45-2.57,4.67-5.42,7.54-7.54,2.92,1.54,5.18,4.02,7.54,6.28,4.48,4.54,9.27,8.76,13.54,13.51,1.41,1.61,3.26,2.73,5.24,3.52-.09-17.91.31-35.83-.16-53.74-7.24,5.53-12.81,13-20.5,17.97-.42-9.01-.14-18.05-.28-27.07Z"/>
      <path class="cls-2" d="m264.55,192.73c7.48-.67,14.99-.23,22.49-.3,14.33.1,28.66-.19,43-.08,4.74.01,9.81.81,13.45,4.13,10.76,8.18,11.77,26.27,1.79,35.46-4.43,4.68-10.84,6.49-17.13,6.42-29.04.07-58.09-.16-87.14-.08-5.75-.05-11.54.41-17.25-.46.91-4.23,4.55-6.93,7.15-10.13,11.23-11.64,22.02-23.7,33.64-34.96Z"/>
      <path class="cls-2" d="m204.99,297.79c.26-5.13.56-10.27.36-15.4,22.95.18,45.91.04,68.87.05-8.33,1.03-16.74.4-25.11.54-14.34-.16-28.7.4-43.03-.31.61,7.2-2.05,14.57.41,21.59,23.18-.38,46.36.06,69.54-.03-.22,19.96.08,39.93.02,59.89-23.71.25-47.43-.19-71.14.24,0-18.89-.23-37.77,0-56.66.36-3.3.34-6.61.07-9.91Z"/>
    </g>
    <g id="_002f3cff" data-name="#002f3cff">
      <path class="cls-3" d="m158.78,0c8.31,6.87,15.39,15.05,23.4,22.24,7.63-7.27,14.34-15.63,22.68-22.1.26,24.97-.17,49.94-.02,74.91-.16,36.44-.15,72.89-.03,109.34-8.53,9.82-17.57,19.22-26.92,28.25-3.64-.98-5.59-5.39-4.3-8.83,1.22-5.11,6.42-7.49,9.43-11.39-23.31-.35-46.63.31-69.94-.03-22.67-.06-45.34-.08-68-.03-6.68-.03-13.38-.36-20.03.38-6.23.69-11.76,4.94-14.39,10.58-4.57,9.68-3.19,22.58,5.15,29.84,3.7,3.82,9.1,5.18,14.27,5.17,41.66.12,83.31.02,124.97-.08-12.12,11.7-23.76,23.9-35.44,36.04-2.74,2.68-5.29,5.61-8.48,7.78-7.77.15-15.55-.01-23.33.08-.06,27.33-.09,54.66.07,81.99,23.68,0,47.37-.17,71.06.16-.2-14.64-.18-29.27-.15-43.91.04-5.15.02-10.3-.06-15.45-6.27-.17-12.53-.43-18.8-.34,37.95-40.7,76.71-80.65,114.76-121.26,7.08.2,14.17-.16,21.27-.07,15.14.12,30.28-.27,45.43-.01,12.69.2,25.39-.07,38.09.1.17,32.9.33,65.81.03,98.71-12.7-.26-25.41.09-38.11.04-.54,42.31.13,84.63-.41,126.94-38.71-.25-77.44-.22-116.15,0,.11,8.36.08,16.72-.11,25.08-15.19-.47-30.38.12-45.57-.06-.71-8.35-.11-16.73-.39-25.09-39.24-.13-78.5-.13-117.74.14.26-42.36.14-84.73.21-127.09-13.67-.2-27.33.21-40.99,0-.1-32.86-.01-65.73-.24-98.59,13.63-.32,27.27.07,40.9-.15,15.66-.23,31.32.02,46.98.02,23.7,0,47.4-.03,71.11.04-.12-21.27-.21-42.54-.13-63.81.62-14.81.45-29.64.01-44.46.05-25.02-.13-50.05-.09-75.08m105.77,192.73c-11.62,11.26-22.41,23.32-33.64,34.96-2.6,3.2-6.24,5.9-7.15,10.13,5.71.87,11.5.41,17.25.46,29.05-.08,58.1.15,87.14.08,6.29.07,12.7-1.74,17.13-6.42,9.98-9.19,8.97-27.28-1.79-35.46-3.64-3.32-8.71-4.12-13.45-4.13-14.34-.11-28.67.18-43,.08-7.5.07-15.01-.37-22.49.3m-59.56,105.06c.27,3.3.29,6.61-.07,9.91-.24,18.89,0,37.77,0,56.66,23.71-.43,47.43.01,71.14-.24.06-19.96-.24-39.93-.02-59.89.3-7.33.12-14.66.1-21.99-.48.05-1.43.15-1.91.2-22.96,0-45.92.13-68.87-.05.2,5.13-.1,10.27-.36,15.4Z"/>
    </g>
    <g id="_caa473ff" data-name="#caa473ff">
      <path class="cls-1" d="m40.74,75.27c17.41-1.11,34.87-.56,52.3-.57,21.95-.2,43.89.13,65.83.38.44,14.82.61,29.65-.01,44.46-3.95.23-7.9.32-11.84.16-14.65-.45-29.29.44-43.94-.02-5-.04-10.06-.48-15.02.39-.61,5.88-.02,11.8-.14,17.7-.11,15.18.03,30.36-.04,45.54-15.66,0-31.32-.25-46.98-.02-.34-36,.19-72.02-.16-108.02Z"/>
      <path class="cls-1" d="m204.84,75.05c12.75-.66,25.5-.05,38.25-.33,26.03.13,52.08-.41,78.11.11.26,36.14-.04,72.29.18,108.43-15.15-.26-30.29.13-45.43.01-.32-21.09-.12-42.18-.19-63.27-13.73.01-27.48-.4-41.2.25.14,9.02-.14,18.06.28,27.07,7.69-4.97,13.26-12.44,20.5-17.97.47,17.91.07,35.83.16,53.74-1.98-.79-3.83-1.91-5.24-3.52-4.27-4.75-9.06-8.97-13.54-13.51-2.36-2.26-4.62-4.74-7.54-6.28-2.87,2.12-5.09,4.97-7.54,7.54-5.4,5.89-11.25,11.35-16.83,17.07-.12-36.45-.13-72.9.03-109.34Z"/>
      <path class="cls-1" d="m274.22,282.44c.48-.05,1.43-.15,1.91-.2.02,7.33.2,14.66-.1,21.99-23.18.09-46.36-.35-69.54.03-2.46-7.02.2-14.39-.41-21.59,14.33.71,28.69.15,43.03.31,8.37-.14,16.78.49,25.11-.54Z"/>
      <path class="cls-1" d="m119.82,325.58c6.68-7.01,13.65-13.74,20.1-20.98,6.27-.09,12.53.17,18.8.34.08,5.15.1,10.3.06,15.45-6.52,4.36-11.63,10.36-17.44,15.55-7.22,6.57-13.63,14.01-21.3,20.07-.71-10.12-.24-20.29-.22-30.43Z"/>
    </g>
  </g>
</svg>